<svg viewBox="0,0,800,363" width="800" height="363" xmlns="http://www.w3.org/2000/svg" xmlns:xlink="http://www.w3.org/1999/xlink"><rect fill="#F2F5F8" x="0" y="0" width="800" height="363"/><g transform="translate(40,40)"><rect fill="#FFFFFF" x="0" y="0" width="720" height="283"/><g transform="translate(0,283)" fill="none" font-size="10" font-family="sans-serif" text-anchor="middle"><path class="domain" stroke="currentColor" d="M0.5,6V0.5H720.5V6"/><g class="tick" opacity="1" transform="translate(0.5,0)"><line stroke="currentColor" y2="6"/><text fill="currentColor" y="9" dy="0.71em">0</text></g><g class="tick" opacity="1" transform="translate(60.5,0)"><line stroke="currentColor" y2="6"/><text fill="currentColor" y="9" dy="0.71em">1</text></g><g class="tick" opacity="1" transform="translate(120.5,0)"><line stroke="currentColor" y2="6"/><text fill="currentColor" y="9" dy="0.71em">2</text></g><g class="tick" opacity="1" transform="translate(180.5,0)"><line stroke="currentColor" y2="6"/><text fill="currentColor" y="9" dy="0.71em">3</text></g><g class="tick" opacity="1" transform="translate(240.5,0)"><line stroke="currentColor" y2="6"/><text fill="currentColor" y="9" dy="0.71em">4</text></g><g class="tick" opacity="1" transform="translate(300.5,0)"><line stroke="currentColor" y2="6"/><text fill="currentColor" y="9" dy="0.71em">5</text></g><g class="tick" opacity="1" transform="translate(360.5,0)"><line stroke="currentColor" y2="6"/><text fill="currentColor" y="9" dy="0.71em">6</text></g><g class="tick" opacity="1" transform="translate(420.5,0)"><line stroke="currentColor" y2="6"/><text fill="currentColor" y="9" dy="0.71em">7</text></g><g class="tick" opacity="1" transform="translate(480.5,0)"><line stroke="currentColor" y2="6"/><text fill="currentColor" y="9" dy="0.71em">8</text></g><g class="tick" opacity="1" transform="translate(540.5,0)"><line stroke="currentColor" y2="6"/><text fill="currentColor" y="9" dy="0.71em">9</text></g><g class="tick" opacity="1" transform="translate(600.5,0)"><line stroke="currentColor" y2="6"/><text fill="currentColor" y="9" dy="0.71em">10</text></g><g class="tick" opacity="1" transform="translate(660.5,0)"><line stroke="currentColor" y2="6"/><text fill="currentColor" y="9" dy="0.71em">11</text></g><g class="tick" opacity="1" transform="translate(720.5,0)"><line stroke="currentColor" y2="6"/><text fill="currentColor" y="9" dy="0.71em">12</text></g></g><g fill="none" font-size="10" font-family="sans-serif" text-anchor="end"><path class="domain" stroke="currentColor" d="M-6,283.5H0.5V0.5H-6"/><g class="tick" opacity="1" transform="translate(0,283.5)"><line stroke="currentColor" x2="-6"/><text fill="currentColor" x="-9" dy="0.32em">0</text></g><g class="tick" opacity="1" transform="translate(0,248.125)"><line stroke="currentColor" x2="-6"/><text fill="currentColor" x="-9" dy="0.32em">10</text></g><g class="tick" opacity="1" transform="translate(0,212.75)"><line stroke="currentColor" x2="-6"/><text fill="currentColor" x="-9" dy="0.32em">20</text></g><g class="tick" opacity="1" transform="translate(0,177.375)"><line stroke="currentColor" x2="-6"/><text fill="currentColor" x="-9" dy="0.32em">30</text></g><g class="tick" opacity="1" transform="translate(0,142)"><line stroke="currentColor" x2="-6"/><text fill="currentColor" x="-9" dy="0.32em">40</text></g><g class="tick" opacity="1" transform="translate(0,106.625)"><line stroke="currentColor" x2="-6"/><text fill="currentColor" x="-9" dy="0.32em">50</text></g><g class="tick" opacity="1" transform="translate(0,71.25)"><line stroke="currentColor" x2="-6"/><text fill="currentColor" x="-9" dy="0.32em">60</text></g><g class="tick" opacity="1" transform="translate(0,35.875)"><line stroke="currentColor" x2="-6"/><text fill="currentColor" x="-9" dy="0.32em">70</text></g><g class="tick" opacity="1" transform="translate(0,0.5)"><line stroke="currentColor" x2="-6"/><text fill="currentColor" x="-9" dy="0.32em">80</text></g></g><path fill="none" stroke="#339AEE" stroke-width="1.5" d="M0,226.4L60,265.3125L120,169.79999999999998L180,219.32500000000002L240,38.91249999999999L300,268.84999999999997L360,7.075000000000006L420,63.675L480,130.88750000000002L540,53.0625L600,81.3625L660,28.299999999999994L720,42.45"/><circle r="4" cx="0" cy="226.4" fill="#FFF" stroke="#339AEE">0,16</circle><circle r="4" cx="60" cy="265.3125" fill="#FFF" stroke="#339AEE">1,5</circle><circle r="4" cx="120" cy="169.79999999999998" fill="#FFF" stroke="#339AEE">2,32</circle><circle r="4" cx="180" cy="219.32500000000002" fill="#FFF" stroke="#339AEE">3,18</circle><circle r="4" cx="240" cy="38.91249999999999" fill="#FFF" stroke="#339AEE">4,69</circle><circle r="4" cx="300" cy="268.84999999999997" fill="#FFF" stroke="#339AEE">5,4</circle><circle r="4" cx="360" cy="7.075000000000006" fill="#FFF" stroke="#339AEE">6,78</circle><circle r="4" cx="420" cy="63.675" fill="#FFF" stroke="#339AEE">7,62</circle><circle r="4" cx="480" cy="130.88750000000002" fill="#FFF" stroke="#339AEE">8,43</circle><circle r="4" cx="540" cy="53.0625" fill="#FFF" stroke="#339AEE">9,65</circle><circle r="4" cx="600" cy="81.3625" fill="#FFF" stroke="#339AEE">10,57</circle><circle r="4" cx="660" cy="28.299999999999994" fill="#FFF" stroke="#339AEE">11,72</circle><circle r="4" cx="720" cy="42.45" fill="#FFF" stroke="#339AEE">12,68</circle><path fill="none" stroke="lightgray" stroke-width="1.5" d="M0,141.5L60,113.2L120,261.77500000000003L180,0L240,17.6875L300,63.675L360,222.86249999999998L420,137.9625L480,272.3875L540,240.54999999999998L600,28.299999999999994L660,56.59999999999999L720,205.17499999999998"/><circle r="4" cx="0" cy="141.5" fill="#FFF" stroke="lightgray">0,40</circle><circle r="4" cx="60" cy="113.2" fill="#FFF" stroke="lightgray">1,48</circle><circle r="4" cx="120" cy="261.77500000000003" fill="#FFF" stroke="lightgray">2,6</circle><circle r="4" cx="180" cy="0" fill="#FFF" stroke="lightgray">3,80</circle><circle r="4" cx="240" cy="17.6875" fill="#FFF" stroke="lightgray">4,75</circle><circle r="4" cx="300" cy="63.675" fill="#FFF" stroke="lightgray">5,62</circle><circle r="4" cx="360" cy="222.86249999999998" fill="#FFF" stroke="lightgray">6,17</circle><circle r="4" cx="420" cy="137.9625" fill="#FFF" stroke="lightgray">7,41</circle><circle r="4" cx="480" cy="272.3875" fill="#FFF" stroke="lightgray">8,3</circle><circle r="4" cx="540" cy="240.54999999999998" fill="#FFF" stroke="lightgray">9,12</circle><circle r="4" cx="600" cy="28.299999999999994" fill="#FFF" stroke="lightgray">10,72</circle><circle r="4" cx="660" cy="56.59999999999999" fill="#FFF" stroke="lightgray">11,64</circle><circle r="4" cx="720" cy="205.17499999999998" fill="#FFF" stroke="lightgray">12,22</circle></g></svg>